<?xml version="1.0" encoding="UTF-8" standalone="no"?>
<!-- Created with Inkscape (http://www.inkscape.org/) -->

<svg
   width="86.425682mm"
   height="84.039452mm"
   viewBox="0 0 86.425682 84.039452"
   version="1.1"
   id="svg1"
   inkscape:version="1.3.2 (091e20e, 2023-11-25, custom)"
   sodipodi:docname="ign.svg"
   xmlns:inkscape="http://www.inkscape.org/namespaces/inkscape"
   xmlns:sodipodi="http://sodipodi.sourceforge.net/DTD/sodipodi-0.dtd"
   xmlns="http://www.w3.org/2000/svg"
   xmlns:svg="http://www.w3.org/2000/svg">
  <sodipodi:namedview
     id="namedview1"
     pagecolor="#505050"
     bordercolor="#ffffff"
     borderopacity="1"
     inkscape:showpageshadow="0"
     inkscape:pageopacity="0"
     inkscape:pagecheckerboard="1"
     inkscape:deskcolor="#505050"
     inkscape:document-units="mm"
     inkscape:zoom="0.5"
     inkscape:cx="-408"
     inkscape:cy="339"
     inkscape:window-width="2560"
     inkscape:window-height="1369"
     inkscape:window-x="-8"
     inkscape:window-y="-8"
     inkscape:window-maximized="1"
     inkscape:current-layer="g5"
     showgrid="false" />
  <defs
     id="defs1">
    <rect
       x="75.123581"
       y="41.895844"
       width="262.93253"
       height="339.50079"
       id="rect5" />
    <rect
       x="56.342686"
       y="39.006477"
       width="173.36211"
       height="167.58337"
       id="rect4" />
    <rect
       x="66.455475"
       y="70.789528"
       width="164.69402"
       height="183.4749"
       id="rect3" />
    <rect
       x="108.35132"
       y="70.789528"
       width="98.238533"
       height="141.57906"
       id="rect2" />
    <clipPath
       clipPathUnits="userSpaceOnUse"
       id="clipPath233">
      <path
         id="path234"
         style="fill:#ff0000;fill-opacity:1;fill-rule:nonzero;stroke:none;stroke-width:0.264583"
         d="M -0.37105304,1.3715e-4 V 19.904349 c 0.0196109,3.7e-4 0.0393144,-9.79e-4 0.0589111,-5.29e-4 1.08194608,0.02872 2.14316994,0.29451 3.09851894,0.852144 1.0674588,0.623074 1.2899729,1.006828 2.131136,1.919261 1.7949002,2.418435 2.728445,5.356648 3.0499431,8.334894 0.085846,0.795221 0.094007,1.596739 0.1410766,2.395201 -0.046436,0.938176 -0.067915,1.878187 -0.137976,2.814815 0.5114084,1.722721 0.7953875,3.505949 1.0505819,5.285465 0.1482613,0.571389 0.2040194,1.092052 0.1875853,1.559597 0.058155,0.528727 0.1107453,1.057338 0.062529,1.584399 -0.116545,1.273889 -0.6122268,3.030696 -1.8939415,3.772379 0.7544147,3.045761 1.2367247,5.89743 0.3973918,8.97723 0.02545,0.01289 0.053332,0.02072 0.078548,0.0341 2.4154438,1.281451 3.9602348,3.506542 4.7738688,6.071981 0.0087,0.03289 0.01898,0.06816 0.02791,0.101288 2.312456,1.883045 4.006675,3.504107 4.704106,6.562389 0.188753,1.319096 0.361738,1.871199 0.127124,3.260265 -0.231999,1.373595 -0.818984,2.569088 -1.661397,3.570843 H 76.628382 V 15.448807 c -0.387062,-0.07513 -0.761333,-0.1906 -1.141016,-0.318844 -0.418568,0.304823 -0.800528,0.46209 -1.394748,0.763261 -0.35419,0.1038 -0.698963,0.247659 -1.062466,0.311609 -1.041048,0.183158 -2.033085,0.04464 -2.931605,-0.447001 -0.630221,-0.169471 -0.805034,-0.348979 -1.497584,-0.805636 -0.837792,-0.721719 -1.631899,-1.526357 -2.239139,-2.457214 -0.360781,-0.553056 -0.536046,-0.932521 -0.830956,-1.511536 -0.04731,-0.104591 -0.0857,-0.212347 -0.129191,-0.318327 -0.313348,-0.331478 -0.573259,-0.7346711 -0.722437,-1.1647865 -0.218826,0.083442 -0.448439,0.1116261 -0.675412,0.085266 -0.02045,0.020534 -0.03906,0.042863 -0.06046,0.062528 -0.552281,0.5073355 -1.307735,0.7340465 -1.961639,1.1012245 -0.745898,-0.117807 -1.532631,-0.08277 -2.237587,-0.353467 -0.449421,-0.172569 -0.851323,-0.473905 -1.22215,-0.817004 -0.110239,0.1063295 -0.223197,0.2099742 -0.342614,0.3038576 -0.289862,0.2278844 -0.625192,0.3901714 -0.937927,0.5854934 -0.302821,0.12105 -0.599842,0.257923 -0.908473,0.363285 -2.327389,0.794546 -4.827154,0.924952 -7.264154,0.855762 C 47.475151,11.45881 46.706415,11.476348 45.243216,10.77829 44.57313,10.458604 43.927983,10.07546 43.337906,9.624872 43.067444,9.4183425 42.833507,9.1696339 42.606685,8.9138043 41.528781,8.9802053 40.451636,9.0650955 39.375874,9.1639184 37.367978,9.3656878 35.356539,9.5284187 33.342652,9.6563948 31.348178,9.7511768 29.35074,9.7724873 27.354385,9.7933373 26.208014,9.8030773 25.061667,9.8057703 23.91532,9.8098733 23.307059,10.018129 22.561413,10.118163 21.675662,10.053786 20.401652,9.961188 19.124201,9.9251089 17.847473,9.8920389 16.580189,9.8615689 15.312692,9.8504219 14.045121,9.8403619 8.8068136,9.7987979 8.8486726,4.507588 14.086981,4.549212 c 1.299351,0.010324 2.598902,0.021312 3.897954,0.05271 0.742769,0.019328 1.485691,0.040889 2.228287,0.07183 0.399455,-0.085383 0.829822,-0.1452917 1.321882,-0.1462445 0.21531,-4.233e-4 0.430649,-6.085e-4 0.645956,-0.00103 1.706145,-0.00419 3.412459,-0.00985 5.11855,-0.024289 1.902981,-0.019817 3.806333,-0.040087 5.707663,-0.1266073 C 34.96817,4.2512902 36.926796,4.0918713 38.881847,3.8955073 38.191716,2.906457 37.491334,1.9250119 36.744511,0.97475552 36.488823,0.64941698 36.234122,0.32235467 35.974015,1.3794375e-4 Z m 42.98704104,0 c 0.617924,0.86710335 1.2206,1.74556555 1.823659,2.62464605 0.272923,0.3963278 0.429792,0.6272839 0.608232,0.8883179 0.601838,-0.013084 1.204035,-0.019587 1.80661,-0.012401 3.314353,0.035058 6.647688,0.00119 9.940994,0.4123777 0.0071,0.00289 0.01511,0.00442 0.02223,0.00723 0.1422,-0.7051553 0.383894,-1.3444397 0.669208,-2.2189861 0.287461,-0.5282239 0.518054,-1.09194068 0.86248,-1.58491605 0.02807,-0.04017168 0.06015,-0.07666804 0.08889,-0.11627193542 z m 30.621904,0 c 0.65673,0.35327352 1.272879,0.77616526 1.812809,1.29501135 0.378722,0.3639312 0.789461,0.846441 1.137396,1.2417848 0.152913,0.1779437 0.298143,0.3618958 0.440285,0.5482868 V 1.3715e-4 Z M 62.492811,2.48474 c -0.0263,-0.011983 -0.07336,0.03689 -0.137459,0.2041218 0.0011,0.065373 0.0034,0.1127004 0.0036,0.1684653 0.02519,-0.024164 0.05124,-0.047343 0.07545,-0.072347 0.08841,-0.091338 0.102216,-0.2802665 0.0584,-0.3002402 z m -7.380946,3.0959351 c -0.08286,0.012494 -0.159674,0.06682 -0.229444,0.1317749 0.108074,-0.042904 0.217651,-0.080254 0.324011,-0.1286742 -0.03207,-0.00693 -0.06347,-0.00779 -0.09457,-0.0031 z m 5.682858,1.6154051 c -0.0011,0.00206 -0.0027,0.00414 -0.0036,0.0062 -0.0034,0.1487837 -0.143025,0.5137441 -0.01035,0.4464844 0.110302,-0.055888 0.190839,-0.1495642 0.261485,-0.2542482 -0.08382,-0.064715 -0.166682,-0.1301335 -0.247531,-0.1984375 z M -0.37105304,25.171728 v 3.384288 c 0.0337939,0.09893 0.0645652,0.198834 0.098702,0.297656 0.69757793,-0.08183 1.39723784,-0.175411 2.05310474,0.02997 0.1592191,0.04986 0.3072416,0.122515 0.4506185,0.204639 C 1.933131,28.046227 1.5096675,27.043239 0.91775724,26.140145 0.50447146,25.566833 0.32763402,25.221909 -0.37105304,25.171728 Z M 0.45215249,57.97541 c -0.0901965,0.05799 -0.1793621,0.117636 -0.27233483,0.171566 0.0415227,0.02191 0.0848085,0.04104 0.12660736,0.06253 0.0486706,-0.07816 0.0909566,-0.159033 0.14572747,-0.234096 z M 6.862614,68.758215 c 0.060655,0.08389 0.1251064,0.164145 0.1989542,0.234611 -0.188069,-0.0024 0.2812558,0.181457 0.2656168,0.0894 -0.011639,-0.06848 -0.05936,-0.138329 -0.1214395,-0.1695 C 7.0807828,68.849986 6.968999,68.801191 6.862614,68.758215 Z m -7.23366704,6.140709 v 2.101165 H 1.4861981 C 0.80045158,76.361514 0.18277729,75.655093 -0.37105304,74.898924 Z" />
    </clipPath>
  </defs>
  <g
     inkscape:label="Ebene 1"
     inkscape:groupmode="layer"
     id="layer1"
     transform="translate(5.0844604,4.4647066)">
    <text
       xml:space="preserve"
       transform="scale(0.26458333)"
       id="text2"
       style="white-space:pre;shape-inside:url(#rect2);display:inline;fill:none;stroke:#eeeeee;stroke-width:28.3465;stroke-linecap:round;stroke-linejoin:round;stroke-dasharray:none;stroke-opacity:1;paint-order:markers stroke fill" />
    <text
       xml:space="preserve"
       transform="scale(0.26458333)"
       id="text3"
       style="white-space:pre;shape-inside:url(#rect3);display:inline;fill:none;stroke:#eeeeee;stroke-width:28.3465;stroke-linecap:round;stroke-linejoin:round;stroke-dasharray:none;stroke-opacity:1;paint-order:markers stroke fill" />
    <text
       xml:space="preserve"
       transform="scale(0.26458333)"
       id="text4"
       style="white-space:pre;shape-inside:url(#rect4);display:inline;fill:none;stroke:#eeeeee;stroke-width:28.3465;stroke-linecap:round;stroke-linejoin:round;stroke-dasharray:none;stroke-opacity:1;paint-order:markers stroke fill" />
    <g
       id="g5">
      <rect
         style="fill:none;stroke:#101010;stroke-width:6.934;stroke-linecap:round;stroke-linejoin:round;stroke-dasharray:none;stroke-opacity:1;paint-order:markers stroke fill"
         id="mainRect"
         width="70.16568"
         height="70.165688"
         x="3.0456996"
         y="3.4171598"
         rx="4.5562129"
         ry="4.5562134"
         clip-path="url(#clipPath233)" />
      <text
         xml:space="preserve"
         style="font-style:normal;font-variant:normal;font-weight:normal;font-stretch:normal;font-size:50.8002px;font-family:Consolas;-inkscape-font-specification:Consolas;fill:none;stroke:#eeeeee;stroke-width:7.50004;stroke-linecap:round;stroke-linejoin:round;stroke-dasharray:none;stroke-opacity:1;paint-order:markers stroke fill"
         x="24.609634"
         y="54.709751"
         id="text7"><tspan
           sodipodi:role="line"
           id="tspan7"
           style="font-style:normal;font-variant:normal;font-weight:normal;font-stretch:normal;font-family:Consolas;-inkscape-font-specification:Consolas;stroke-width:7.50003"
           x="24.609634"
           y="54.709751" /></text>
      <path
         style="fill:#b0b0a6;fill-opacity:0.551089;stroke:#101010;stroke-width:7.534;stroke-linecap:round;stroke-dasharray:none;stroke-opacity:1;paint-order:markers stroke fill"
         d="M 77.574218,-0.6977066 -1.3174604,75.807746"
         id="path61" />
      <path
         style="fill:#eeeeee;fill-opacity:1;stroke:#101010;stroke-width:6.81448;stroke-linecap:round;stroke-dasharray:none;stroke-opacity:1;paint-order:markers stroke fill"
         d="m 73.108843,16.385922 0.11306,50.252822"
         id="path193" />
      <path
         style="fill:#eeeeee;fill-opacity:1;stroke:#101010;stroke-width:6.81448;stroke-linecap:round;stroke-dasharray:none;stroke-opacity:1;paint-order:markers stroke fill"
         d="m 13.926254,73.655229 50.252858,-0.0962"
         id="path193-7" />
      <path
         style="fill:#eeeeee;fill-opacity:1;stroke:#101010;stroke-width:6.81448;stroke-linecap:round;stroke-dasharray:none;stroke-opacity:1;paint-order:markers stroke fill"
         d="M 3.1606712,58.473088 3.0476112,8.2202672"
         id="path194" />
      <path
         style="fill:#eeeeee;fill-opacity:1;stroke:#101010;stroke-width:6.81448;stroke-linecap:round;stroke-dasharray:none;stroke-opacity:1;paint-order:markers stroke fill"
         d="m 60.226588,3.3204529 -50.2528577,0.0962"
         id="path195" />
    </g>
  </g>
</svg>
