<?xml version="1.0" encoding="UTF-8" standalone="no"?>
<!-- Created with Inkscape (http://www.inkscape.org/) -->

<svg
   width="47.744999mm"
   height="45.775002mm"
   viewBox="0 0 47.744999 45.775002"
   version="1.1"
   id="svg1"
   inkscape:version="1.3.2 (091e20e, 2023-11-25, custom)"
   sodipodi:docname="home.svg"
   xmlns:inkscape="http://www.inkscape.org/namespaces/inkscape"
   xmlns:sodipodi="http://sodipodi.sourceforge.net/DTD/sodipodi-0.dtd"
   xmlns:xlink="http://www.w3.org/1999/xlink"
   xmlns="http://www.w3.org/2000/svg"
   xmlns:svg="http://www.w3.org/2000/svg">
  <sodipodi:namedview
     id="namedview1"
     pagecolor="#505050"
     bordercolor="#ffffff"
     borderopacity="1"
     inkscape:showpageshadow="0"
     inkscape:pageopacity="0"
     inkscape:pagecheckerboard="1"
     inkscape:deskcolor="#505050"
     inkscape:document-units="mm"
     inkscape:zoom="1.0449705"
     inkscape:cx="244.50451"
     inkscape:cy="142.10927"
     inkscape:window-width="1920"
     inkscape:window-height="991"
     inkscape:window-x="-9"
     inkscape:window-y="-9"
     inkscape:window-maximized="1"
     inkscape:current-layer="layer1" />
  <defs
     id="defs1" />
  <g
     inkscape:label="Ebene 1"
     inkscape:groupmode="layer"
     id="layer1">
    <g
       id="g2"
       transform="translate(0.34662899,-10.034311)">
      <rect
         style="fill:#000000;fill-opacity:1;stroke:#191919;stroke-width:1.2;stroke-linecap:square;stroke-linejoin:round;stroke-dasharray:none;stroke-opacity:1;paint-order:markers stroke fill"
         id="rect2"
         width="8.608696"
         height="27.344999"
         x="8.8618927"
         y="23.80051" />
      <rect
         style="fill:#000000;fill-opacity:1;stroke:#191919;stroke-width:1.2;stroke-linecap:square;stroke-linejoin:round;stroke-dasharray:none;stroke-opacity:1;paint-order:markers stroke fill"
         id="rect3"
         width="8.6090002"
         height="27.344999"
         x="30.636827"
         y="23.800512" />
      <path
         style="fill:#000000;stroke:#191919;stroke-width:0.687531;stroke-linecap:square;stroke-linejoin:round;stroke-opacity:1;paint-order:markers stroke fill"
         d="m 32.257102,26.301307 -0.04506,22.782789"
         id="path2-7" />
      <path
         style="fill:#000000;stroke:#191919;stroke-width:0.687531;stroke-linecap:square;stroke-linejoin:round;stroke-opacity:1;paint-order:markers stroke fill"
         d="M 37.5516,26.504885 37.50654,49.287674"
         id="path2-1-6" />
      <path
         style="fill:#000000;stroke:#191919;stroke-width:0.688745;stroke-linecap:square;stroke-linejoin:round;stroke-opacity:1;paint-order:markers stroke fill"
         d="m 34.852885,25.926173 -0.04385,23.497722"
         id="path2-4-3" />
      <rect
         style="fill:#000000;fill-opacity:1;stroke:#191919;stroke-width:1.2;stroke-linecap:square;stroke-linejoin:round;stroke-dasharray:none;stroke-opacity:1;paint-order:markers stroke fill"
         id="rect4"
         width="18.483376"
         height="3.2915602"
         x="3.7979538"
         y="51.652172" />
      <rect
         style="fill:#000000;fill-opacity:1;stroke:#191919;stroke-width:1.2;stroke-linecap:square;stroke-linejoin:round;stroke-dasharray:none;stroke-opacity:1;paint-order:markers stroke fill"
         id="rect4-3"
         width="18.483376"
         height="3.2915602"
         x="26.219036"
         y="51.917782" />
      <path
         style="fill:#000000;fill-opacity:1;stroke:#191919;stroke-width:1.2;stroke-linecap:square;stroke-linejoin:round;stroke-dasharray:none;stroke-opacity:1;paint-order:markers stroke fill"
         d="M 0.25319693,23.547314 23.800511,23.294117 23.294117,10.634271 Z"
         id="path8" />
      <use
         x="0"
         y="0"
         xlink:href="#path8"
         id="use8-2"
         transform="matrix(-1,0,0,1,47.051671,0.08871256)"
         style="stroke:#000000;stroke-width:1;stroke-dasharray:none;stroke-opacity:1" />
      <rect
         style="fill:#000000;fill-opacity:1;stroke:#000000;stroke-width:0.820465;stroke-linecap:square;stroke-linejoin:round;stroke-dasharray:none;stroke-opacity:1;paint-order:markers stroke fill"
         id="rect8"
         width="0.68592775"
         height="12.079791"
         x="22.951151"
         y="10.797699" />
      <path
         style="fill:#000000;stroke:#000000;stroke-width:1;stroke-linecap:square;stroke-linejoin:round;paint-order:markers stroke fill"
         id="path1"
         d="m 10.590415,25.674098 c 0.04777,0.410412 0.03916,0.825364 0.03643,1.2379 -0.002,0.358643 -0.01797,0.717008 -0.01282,1.075664 -0.0058,0.307673 -0.006,0.615169 -0.0019,0.922835 0.01764,0.356862 0.05044,0.712705 0.07538,1.069109 0.06374,0.469109 0.152958,0.935062 0.238905,1.400752 0.07396,0.494033 0.130375,0.990206 0.226394,1.480704 0.117044,0.542647 0.148937,1.097063 0.193468,1.648756 0.04794,0.640779 0.07752,1.282147 0.09112,1.924542 0.0056,0.517999 -0.0051,1.035188 0.0199,1.552776 0.0221,0.451779 0.06594,0.901891 0.102181,1.352614 0.0086,0.332166 0.04626,0.661918 0.07793,0.992274 0.04402,0.335093 0.04921,0.673963 0.04782,1.011505 -0.01078,0.459952 0.05648,0.916131 0.10969,1.37168 0.08364,0.710258 0.110481,1.424302 0.09036,2.138693 -0.02975,0.472612 -0.06841,0.944417 -0.09691,1.417103 -0.01497,0.283122 -0.01262,0.566163 -0.03382,0.848812 -0.01017,0.266375 -0.06495,0.526243 -0.114478,0.787032 -0.05037,0.159444 -0.172452,0.287166 -0.256853,0.431837 0,0 3.41773,1.965754 3.41773,1.965754 v 0 c 0.09865,-0.189894 0.243615,-0.352708 0.318014,-0.555673 0.03407,-0.271507 0.09153,-0.539305 0.109206,-0.812805 0.0398,-0.294769 0.04154,-0.587994 0.03187,-0.885195 -0.0048,-0.488381 5.03e-4,-0.976852 0.0035,-1.465228 0.01479,-0.721884 0.0085,-1.443556 -0.04299,-2.164215 -0.02881,-0.435211 -0.06005,-0.870559 -0.05135,-1.306976 -0.0082,-0.34677 -0.01088,-0.693592 -0.02331,-1.040235 -0.03732,-0.333865 -0.09357,-0.664914 -0.111052,-1.000774 -0.04082,-0.451167 -0.107451,-0.899594 -0.121213,-1.352912 -0.04159,-0.51848 -0.0467,-1.037976 -0.06109,-1.557848 -0.02186,-0.643266 -0.05322,-1.286235 -0.08987,-1.928802 0.0016,-0.565812 -0.05704,-1.128022 -0.148968,-1.686293 -0.08071,-0.493308 -0.157004,-0.987176 -0.232481,-1.481344 -0.074,-0.450096 -0.14886,-0.899234 -0.193565,-1.353439 -0.05598,-0.338968 -0.05194,-0.686332 -0.09263,-1.027594 0.0041,-0.308308 0.0039,-0.616445 -0.0019,-0.924761 0.0053,-0.363003 -0.01102,-0.725733 -0.01282,-1.088726 -0.0026,-0.400045 -0.01319,-0.80314 0.03643,-1.200774 z" />
      <path
         style="fill:#000000;stroke:#191919;stroke-width:0.687531;stroke-linecap:square;stroke-linejoin:round;stroke-opacity:1;paint-order:markers stroke fill"
         d="m 10.182894,25.803599 -0.04506,22.782789"
         id="path2" />
      <path
         style="fill:#000000;stroke:#191919;stroke-width:0.687531;stroke-linecap:square;stroke-linejoin:round;stroke-opacity:1;paint-order:markers stroke fill"
         d="m 15.477392,26.007177 -0.04506,22.782789"
         id="path2-1" />
      <path
         style="fill:#000000;stroke:#191919;stroke-width:0.688745;stroke-linecap:square;stroke-linejoin:round;stroke-opacity:1;paint-order:markers stroke fill"
         d="m 12.778677,25.428465 -0.04385,23.497722"
         id="path2-4" />
    </g>
  </g>
</svg>
